<svg width="68" height="65" viewBox="0 0 68 65" fill="none" xmlns="http://www.w3.org/2000/svg">
<mask id="path-1-inside-1_42_142" fill="white">
<path fill-rule="evenodd" clip-rule="evenodd" d="M0.619858 63.7542C3.36503 64.5211 6.25914 64.9312 9.24902 64.9312C26.9221 64.9312 41.249 50.6043 41.249 32.9312C41.249 15.258 26.9221 0.931152 9.24902 0.931152C6.25914 0.931152 3.36503 1.3412 0.619858 2.10813V63.7542Z"/>
</mask>
<path d="M0.619858 63.7542L-1.96321 73.0001L-8.98014 71.0398V63.7542H0.619858ZM0.619858 2.10813H-8.98014V-5.17749L-1.96321 -7.13783L0.619858 2.10813ZM3.20293 54.5082C5.11527 55.0425 7.14062 55.3312 9.24902 55.3312V74.5312C5.37766 74.5312 1.61478 73.9997 -1.96321 73.0001L3.20293 54.5082ZM9.24902 55.3312C21.6202 55.3312 31.649 45.3023 31.649 32.9312H50.849C50.849 55.9062 32.2241 74.5312 9.24902 74.5312V55.3312ZM31.649 32.9312C31.649 20.56 21.6202 10.5312 9.24902 10.5312V-8.66885C32.2241 -8.66885 50.849 9.95611 50.849 32.9312H31.649ZM9.24902 10.5312C7.14062 10.5312 5.11527 10.8198 3.20293 11.3541L-1.96321 -7.13783C1.61479 -8.13743 5.37766 -8.66885 9.24902 -8.66885V10.5312ZM10.2199 2.10813V63.7542H-8.98014V2.10813H10.2199Z" fill="#CDC4A7" mask="url(#path-1-inside-1_42_142)"/>
<mask id="path-3-inside-2_42_142" fill="white">
<path fill-rule="evenodd" clip-rule="evenodd" d="M10.219 63.7542C12.9641 64.5211 15.8583 64.9312 18.8481 64.9312C36.5213 64.9312 50.8481 50.6043 50.8481 32.9312C50.8481 15.258 36.5213 0.931152 18.8481 0.931152C15.8583 0.931152 12.9641 1.3412 10.219 2.10813V63.7542Z"/>
</mask>
<path d="M10.219 63.7542L6.77486 76.0821L-2.58103 73.4683V63.7542H10.219ZM10.219 2.10813H-2.58103V-7.60602L6.77487 -10.2198L10.219 2.10813ZM13.6631 51.4262C15.2978 51.8829 17.0336 52.1312 18.8481 52.1312V77.7312C14.683 77.7312 10.6305 77.1593 6.77486 76.0821L13.6631 51.4262ZM18.8481 52.1312C29.452 52.1312 38.0481 43.535 38.0481 32.9312H63.6481C63.6481 57.6735 43.5905 77.7312 18.8481 77.7312V52.1312ZM38.0481 32.9312C38.0481 22.3273 29.452 13.7312 18.8481 13.7312V-11.8688C43.5905 -11.8688 63.6481 8.1888 63.6481 32.9312H38.0481ZM18.8481 13.7312C17.0336 13.7312 15.2978 13.9794 13.6631 14.4361L6.77487 -10.2198C10.6305 -11.297 14.683 -11.8688 18.8481 -11.8688V13.7312ZM23.019 2.10813V63.7542H-2.58103V2.10813H23.019Z" fill="#858ABA" mask="url(#path-3-inside-2_42_142)"/>
<path d="M67.9996 0.931152L17.1978 44.3526C15.686 45.6448 13.4962 45.3442 12.3991 43.6938C11.302 42.0433 11.7456 39.7173 13.3714 38.5964L67.9996 0.931152Z" fill="#CDC4A7"/>
</svg>
