<svg width="78" height="101" viewBox="0 0 78 101" fill="none" xmlns="http://www.w3.org/2000/svg">
<path fill-rule="evenodd" clip-rule="evenodd" d="M14.9995 57.8749V98.3648C19.2889 99.5632 23.8109 100.204 28.4827 100.204C53.4884 100.204 74.2068 81.8476 77.8979 57.8749H57.493C54.6486 68.6605 45.9489 77.0687 34.9995 79.4941V57.8749H14.9995ZM14.9995 42.5328H34.9995V20.9137C45.9489 23.339 54.6486 31.7472 57.493 42.5328H77.8979C74.2068 18.5602 53.4884 0.203857 28.4827 0.203857C23.8109 0.203857 19.2889 0.844565 14.9995 2.0429V42.5328Z" fill="#858ABA"/>
<path fill-rule="evenodd" clip-rule="evenodd" d="M0.000488281 57.8749V98.3648C4.28984 99.5632 8.81192 100.204 13.4836 100.204C38.4894 100.204 59.2078 81.8476 62.8989 57.8749H47.6404C44.2496 73.039 31.0189 84.4885 15.0005 85.1716V57.8749H0.000488281ZM0.000488281 42.5328H15.0005V15.2361C31.0189 15.9192 44.2496 27.3687 47.6404 42.5328H62.8989C59.2078 18.5602 38.4894 0.203857 13.4836 0.203857C8.81192 0.203857 4.28984 0.844565 0.000488281 2.0429V42.5328Z" fill="#CDC4A7"/>
</svg>
